<?xml version="1.0" encoding="UTF-8"?>
<svg version="1.1" xmlns="http://www.w3.org/2000/svg" width="60" height="60">
<path d="M0 0 C6.92729069 5.1180162 11.62203009 10.59109363 14 19 C14.8249781 28.23546915 14.75664245 36.08112286 9.04296875 43.5625 C2.92302009 50.73545516 -2.70449146 55.48154636 -12.3203125 56.2734375 C-20.7191962 56.49763768 -26.85412147 55.76855318 -34 51 C-34.9075 50.443125 -35.815 49.88625 -36.75 49.3125 C-43.8650721 41.99978701 -46.33920733 34.20974808 -46.38500977 24.26391602 C-46.21190011 15.94623114 -43.27258312 10.18053494 -37.625 4.125 C-27.46098023 -5.26398558 -11.96006047 -7.85815148 0 0 Z " fill="#0898FE" transform="translate(46,4)"/>
<path d="M0 0 C11.21639082 -0.57438132 18.57744006 0.14653755 27.3125 7.375 C33.1497307 12.8176664 36.76161919 18.54704647 37.1953125 26.6484375 C37.17210937 27.87820312 37.14890625 29.10796875 37.125 30.375 C37.10695312 31.62023437 37.08890625 32.86546875 37.0703125 34.1484375 C37.04710937 35.08945312 37.02390625 36.03046875 37 37 C31.75615069 38.53417174 26.40463804 38.64021883 21 38 C18.1875 36 18.1875 36 16 33 C11.70521043 27.74959229 7.35506028 23.49233962 1.8203125 19.54296875 C0 18 0 18 -1 15 C-1.09467365 12.81415251 -1.12988914 10.62539133 -1.125 8.4375 C-1.12757812 7.28121094 -1.13015625 6.12492188 -1.1328125 4.93359375 C-1 2 -1 2 0 0 Z " fill="#0909AF" transform="translate(23,0)"/>
<path d="M0 0 C8.60549621 -0.73238266 15.48364224 2.97886963 22.14453125 8.23046875 C28.0104715 13.82472335 31.86235316 20.73294783 32.125 28.875 C32.08375 29.90625 32.0425 30.9375 32 32 C22.70696462 32.88975871 17.01771989 30.07905539 9.25 25.3125 C3.73497337 19.64427819 -0.16592751 12.77641819 -0.0625 4.8125 C-0.05347656 3.91144531 -0.04445312 3.01039062 -0.03515625 2.08203125 C-0.02355469 1.39496094 -0.01195312 0.70789063 0 0 Z " fill="#0B0BFE" transform="translate(0,28)"/>
<path d="M0 0 C-0.01160156 0.90363281 -0.02320312 1.80726563 -0.03515625 2.73828125 C-0.04417969 3.91777344 -0.05320312 5.09726563 -0.0625 6.3125 C-0.07410156 7.48425781 -0.08570312 8.65601563 -0.09765625 9.86328125 C-0.14899898 13.03059195 -0.14899898 13.03059195 1 16 C2.62499702 17.4258716 2.62499702 17.4258716 4.625 18.75 C10.55875327 23.04318235 15.40487793 27.56662366 19 34 C22.06533164 35.53266582 25.26754272 35.10276471 28.625 35.0625 C29.33140625 35.05798828 30.0378125 35.05347656 30.765625 35.04882812 C32.51045275 35.03703875 34.255237 35.01910324 36 35 C34.95097862 43.58733777 29.88558835 48.60048296 23.41796875 53.96875 C22 55 22 55 21 55 C20.85304687 54.26136719 20.70609375 53.52273437 20.5546875 52.76171875 C17.84898797 40.52387088 12.67775249 29.74936256 2.1875 22.4375 C-4.72057513 18.17909752 -12.23135537 16.11517677 -20 14 C-17.95227235 10.25128452 -15.77797122 7.61587036 -12.5625 4.8125 C-11.80066406 4.13832031 -11.03882813 3.46414062 -10.25390625 2.76953125 C-6.60914258 -0.09195565 -4.56038357 -1.62870842 0 0 Z " fill="#EEF1FB" transform="translate(23,2)"/>
<path d="M0 0 C2.97 0 5.94 0 9 0 C8.835 0.639375 8.67 1.27875 8.5 1.9375 C7.26347278 9.51122921 7.42649926 15.57465234 12 22 C15.52314286 25.71154622 19.46929657 28.78042426 24.65625 29.23046875 C25.5946875 29.21628906 26.533125 29.20210937 27.5 29.1875 C28.90765625 29.17783203 28.90765625 29.17783203 30.34375 29.16796875 C33.25546644 29.06421932 33.25546644 29.06421932 37 28 C37 30.97 37 33.94 37 37 C31.60990983 38.34752254 26.52665729 38.6546729 21 38 C18.1875 36 18.1875 36 16 33 C11.70521043 27.74959229 7.35506028 23.49233962 1.8203125 19.54296875 C0 18 0 18 -1 15 C-1.09467365 12.81415251 -1.12988914 10.62539133 -1.125 8.4375 C-1.12757812 7.28121094 -1.13015625 6.12492188 -1.1328125 4.93359375 C-1 2 -1 2 0 0 Z " fill="#0909AF" transform="translate(23,0)"/>
<path d="M0 0 C9.41854383 -0.81900381 17.63464439 3.5128304 24.7421875 9.45703125 C32.2251024 16.31369362 35.44099817 23.87569403 35.95703125 33.9453125 C35.97121094 34.62335937 35.98539063 35.30140625 36 36 C34.68 36 33.36 36 32 36 C31.90203125 35.3709375 31.8040625 34.741875 31.703125 34.09375 C30.17442038 25.3432339 27.38076135 18.38076135 21 12 C14.31946103 7.60715015 7.96095385 4.93658281 0 4 C0 2.68 0 1.36 0 0 Z " fill="#EFF5FE" transform="translate(0,24)"/>
<path d="M0 0 C1.32 0 2.64 0 4 0 C3.84144531 0.56074219 3.68289062 1.12148438 3.51953125 1.69921875 C2.30382691 7.08305225 2.02585193 12.85590575 4.5625 17.875 C7.29631574 21.37989197 9.76543544 23.67119524 14 25 C18.82790133 25.52072896 23.32211653 25.32271188 28 24 C27.67 25.65 27.34 27.3 27 29 C21.76572275 30.74475908 15.88406073 31.12454133 10.67578125 29.09375 C4.85559752 25.63489796 -0.27909392 20.72717832 -2 14 C-2.43590549 8.9268021 -2.38410888 4.61921096 0 0 Z " fill="#F2F2FB" transform="translate(32,0)"/>
<path d="M0 0 C6.80640885 0.89517395 11.49796452 2.68153322 16 8 C18.6853811 12.13135553 20 15.01627579 20 20 C12.01957228 18.00489307 6.74902656 13.68473203 2.5 6.75 C0 2.36170213 0 2.36170213 0 0 Z " fill="#070BB2" transform="translate(1,39)"/>
<path d="M0 0 C6.00529263 -0.78329904 9.58220394 0.90309706 14.62890625 4.15234375 C19.43702164 7.89903004 23.43066483 13.03652634 25 19 C25.125 22.3125 25.125 22.3125 25 25 C23.08984375 24.76171875 23.08984375 24.76171875 21 24 C20.12890625 22.14453125 20.12890625 22.14453125 19.5625 19.8125 C17.90579097 14.1796893 15.50677602 10.82926899 10.6875 7.3125 C7.19936006 5.6089898 3.6575842 4.301852 0 3 C0 2.01 0 1.02 0 0 Z " fill="#EEEFFD" transform="translate(0,35)"/>
<path d="M0 0 C5.40839975 3.16589254 9.04174791 7.17514834 13 12 C10.71203922 14.62176661 10.22997927 14.97072991 6.5625 15.4375 C3 15 3 15 0.625 13.125 C-2.07076206 9.59977269 -2.2710289 7.42680541 -2 3 C-1.34 2.01 -0.68 1.02 0 0 Z " fill="#F2F2FC" transform="translate(44,3)"/>
<path d="M0 0 C0 4.29 0 8.58 0 13 C-5.94 12.01 -5.94 12.01 -12 11 C-10.21744085 7.43488171 -9.39968548 6.20228316 -6.5 3.8125 C-5.8915625 3.30332031 -5.283125 2.79414062 -4.65625 2.26953125 C-1.69538462 0 -1.69538462 0 0 0 Z " fill="#0505AD" transform="translate(18,2)"/>
<path d="M0 0 C4.29 0 8.58 0 13 0 C10.12177332 5.75645336 7.056481 9.01315921 2 13 C1.34 8.71 0.68 4.42 0 0 Z " fill="#0505AD" transform="translate(45,42)"/>
<path d="M0 0 C1.14926266 0.95421808 2.29430541 1.91352045 3.4375 2.875 C4.07558594 3.40867187 4.71367188 3.94234375 5.37109375 4.4921875 C7 6 7 6 8 8 C4.625 8.625 4.625 8.625 1 9 C0.34 8.34 -0.32 7.68 -1 7 C-0.625 3.375 -0.625 3.375 0 0 Z " fill="#0B0BFD" transform="translate(47,5)"/>
<path d="M0 0 C1.11375 0.4640625 1.11375 0.4640625 2.25 0.9375 C4.83850051 2.05169386 4.83850051 2.05169386 7.0625 2.3125 C10.00650712 3.35714769 11.22206833 5.52359517 13 8 C11.296875 8.7421875 11.296875 8.7421875 9 9 C6.640625 7.3828125 6.640625 7.3828125 4.25 5.125 C3.45078125 4.38507812 2.6515625 3.64515625 1.828125 2.8828125 C0 1 0 1 0 0 Z " fill="#1717AD" transform="translate(25,18)"/>
</svg>
